<?xml version="1.0" encoding="UTF-8" standalone="no"?>
<!-- Created with Inkscape (http://www.inkscape.org/) -->

<svg
   width="210mm"
   height="297mm"
   viewBox="0 0 210 297"
   version="1.1"
   id="svg5"
   inkscape:version="1.1 (c68e22c387, 2021-05-23)"
   sodipodi:docname="logo.svg"
   xmlns:inkscape="http://www.inkscape.org/namespaces/inkscape"
   xmlns:sodipodi="http://sodipodi.sourceforge.net/DTD/sodipodi-0.dtd"
   xmlns="http://www.w3.org/2000/svg"
   xmlns:svg="http://www.w3.org/2000/svg">
  <sodipodi:namedview
     id="namedview7"
     pagecolor="#ffffff"
     bordercolor="#666666"
     borderopacity="1.0"
     inkscape:pageshadow="2"
     inkscape:pageopacity="0.0"
     inkscape:pagecheckerboard="0"
     inkscape:document-units="mm"
     showgrid="false"
     inkscape:object-paths="true"
     showguides="true"
     inkscape:guide-bbox="true"
     inkscape:snap-nodes="false"
     inkscape:zoom="0.72337262"
     inkscape:cx="128.56445"
     inkscape:cy="561.95105"
     inkscape:window-width="1920"
     inkscape:window-height="1001"
     inkscape:window-x="-9"
     inkscape:window-y="-9"
     inkscape:window-maximized="1"
     inkscape:current-layer="g4342" />
  <defs
     id="defs2" />
  <g
     inkscape:label="Layer 1"
     inkscape:groupmode="layer"
     id="layer1">
    <g
       id="g4342"
       transform="translate(-8.046798,33.650246)">
      <g
         id="g943"
         transform="translate(160.57019,-10.241379)">
        <circle
           style="fill:#cccccc;fill-opacity:1;stroke:#cccccc;stroke-width:1"
           id="path4093"
           cx="-33.907814"
           cy="142.56984"
           r="49.378078" />
        <path
           id="path912"
           style="fill:#333333;stroke:#333333;stroke-width:1"
           d="m -46.81792,60.670267 c -3.444756,0 -6.217708,2.772949 -6.217708,6.217708 v 12.89224 a 61.082512,61.082512 0 0 0 -15.185117,6.17895 61.082512,61.082512 0 0 0 -12.690184,9.80715 l -6.295221,-3.6344 c -2.983248,-1.72238 -6.771677,-0.70742 -8.494056,2.27583 l -12.070064,20.906215 c -1.72238,2.98325 -0.70742,6.77168 2.27583,8.49406 l 7.698755,4.44469 a 61.082512,61.082512 0 0 0 2.143022,29.74134 l -9.841777,5.68182 c -2.98325,1.72238 -3.99821,5.51081 -2.27583,8.49405 l 12.070064,20.90622 c 1.722379,2.98325 5.510808,3.99821 8.494056,2.27583 l 11.164692,-6.4456 a 61.082512,61.082512 0 0 0 12.943914,10.06088 61.082512,61.082512 0 0 0 10.418484,4.7284 v 11.59051 c 0,3.44475 2.772953,6.21821 6.21771,6.21823 h 24.14064 c 3.44476,-2e-5 6.21771,-2.77348 6.21771,-6.21823 v -10.43348 a 61.082512,61.082512 0 0 0 1.55133,-0.41548 61.082512,61.082512 0 0 0 24.13806,-14.18776 l 8.8377,5.10253 c 2.98325,1.72238 6.77116,0.70742 8.49354,-2.27583 l 12.07058,-20.90622 c 1.72238,-2.98324 0.70742,-6.77167 -2.27583,-8.49405 l -9.00203,-5.1971 a 61.082512,61.082512 0 0 0 -1.16789,-34.3147 l 9.81336,-5.6658 c 2.98324,-1.72238 3.9982,-5.51081 2.27583,-8.49406 L 26.56158,89.097985 c -1.72238,-2.98324 -5.51081,-3.9982 -8.49405,-2.27583 l -13.06277,7.54166 a 61.082512,61.082512 0 0 0 -3.97185,-2.72128 61.082512,61.082512 0 0 0 -17.49248,-10.02781 v -14.72675 c 0,-3.444759 -2.77295,-6.217708 -6.2177,-6.217708 z m 12.253,34.318318 a 47.84222,47.84222 0 0 1 23.92154,6.409435 47.84222,47.84222 0 0 1 17.51107,65.35363 47.84222,47.84222 0 0 1 -65.353631,17.51159 47.84222,47.84222 0 0 1 -17.511075,-65.35363 47.84222,47.84222 0 0 1 41.432096,-23.921025 z" />
        <path
           id="path1531"
           style="fill:#4d4d4d;stroke:#4d4d4d;stroke-width:0.933094"
           d="m -35.110641,103.85077 c -9.613077,9e-5 -17.405903,7.79316 -17.405705,17.40624 0.0032,5.83151 2.925522,11.27421 7.785315,14.49739 v 20.96377 c 0,0.0416 -7.68e-4,-0.0413 0,0 -8.895179,3.48287 -14.9033,11.82961 -15.394006,21.18574 h 49.041539 c -0.453813,-8.69762 -5.688618,-16.47324 -13.680052,-20.31993 0.03756,-0.28321 0.05864,-0.57204 0.05864,-0.86581 v -21.52303 c 4.400794,-3.28216 6.995189,-8.44819 6.999781,-13.93813 1.95e-4,-9.61308 -7.792632,-17.40615 -17.405704,-17.40624 z"
           sodipodi:nodetypes="cccsccccscccc" />
        <path
           id="rect3237"
           style="fill:#4d4d4d;fill-opacity:1;stroke:#4d4d4d;stroke-width:0.782997"
           d="m 9.9265722,145.90337 -8.5311244,-4.02484 -8.5311368,-4.02524 v 0.12254 a 10.613934,8.6733139 0 0 0 -4.108844,-0.68187 10.613934,8.6733139 0 0 0 -8.728986,3.76474 h -43.017993 c -2.983775,0 -5.385894,1.96291 -5.385894,4.40116 v 1.29457 c -9e-6,2.43823 2.402119,4.40115 5.385894,4.40115 h 43.255505 a 10.613934,8.6733139 0 0 0 8.491474,3.48488 10.613934,8.6733139 0 0 0 6.4878505,-1.80963 l 6.1521303,-2.90262 z" />
      </g>
    </g>
    <path
       id="path3981"
       style="fill:#333333;stroke:#333333;stroke-width:1"
       d="m 303.07076,48.351176 c -3.44477,0 -6.21774,2.772949 -6.21774,6.217708 v 12.89224 a 61.082512,61.082512 0 0 0 -15.18517,6.17895 61.082512,61.082512 0 0 0 -12.69018,9.80715 l -6.29522,-3.6344 c -2.98325,-1.72238 -6.77168,-0.70742 -8.49406,2.27583 l -12.07002,20.906196 c -1.72237,2.98325 -0.70742,6.77168 2.27582,8.49406 l 7.69872,4.44469 a 61.082512,61.082512 0 0 0 2.14302,29.74134 l -9.84174,5.68182 c -2.98324,1.72238 -3.99819,5.51081 -2.27582,8.49405 l 12.07002,20.90622 c 1.72238,2.98325 5.51081,3.99821 8.49406,2.27583 l 11.16469,-6.4456 a 61.082512,61.082512 0 0 0 12.94391,10.06088 61.082512,61.082512 0 0 0 10.41854,4.7284 v 11.59051 c 0,3.44475 2.77297,6.21821 6.21775,6.21823 h 24.14077 c 3.44478,-2e-5 6.21775,-2.77348 6.21775,-6.21823 v -10.43348 a 61.082512,61.082512 0 0 0 1.55134,-0.41548 61.082512,61.082512 0 0 0 24.13821,-14.18776 l 8.83774,5.10253 c 2.98327,1.72238 6.7712,0.70742 8.49359,-2.27583 l 12.07065,-20.90622 c 1.72239,-2.98324 0.70743,-6.77167 -2.27584,-8.49405 l -9.00208,-5.1971 a 61.082512,61.082512 0 0 0 -1.1679,-34.3147 l 9.81342,-5.6658 c 2.98325,-1.72238 3.99822,-5.51081 2.27584,-8.494059 L 376.45069,76.778894 c -1.72239,-2.98324 -5.51084,-3.9982 -8.4941,-2.27583 l -13.06284,7.54166 a 61.082512,61.082512 0 0 0 -3.97188,-2.72128 61.082512,61.082512 0 0 0 -17.49259,-10.02781 v -14.72675 c 0,-3.444759 -2.77296,-6.217708 -6.21773,-6.217708 z m 12.25307,34.318318 a 47.84222,47.84222 0 0 1 23.92168,6.409429 47.84222,47.84222 0 0 1 17.51118,65.353617 47.84222,47.84222 0 0 1 -65.35401,17.51159 47.84222,47.84222 0 0 1 -17.5111,-65.35363 47.84222,47.84222 0 0 1 41.43225,-23.921006 z" />
  </g>
</svg>
